<svg xmlns="http://www.w3.org/2000/svg" version="1.1" xmlns:xlink="http://www.w3.org/1999/xlink" xmlns:svgjs="http://svgjs.dev/svgjs" width="1440" height="560" preserveAspectRatio="none" viewBox="0 0 1440 560">
    <g mask="url(&quot;#SvgjsMask1020&quot;)" fill="none">
        <path d="M719.4379735002079 432.27050623748795L627.2027791339486 534.7080674083585 729.6403403048192 626.9432617746178 821.8755346710785 524.5057006037472z" fill="rgba(255, 230, 2, 0.4)" class="triangle-float1"></path>
        <path d="M484.723,225.153C519.153,224.265,550.308,203.703,565.745,172.915C579.809,144.864,569.905,113.186,554.596,85.795C538.785,57.506,517.062,30.064,484.723,27.949C449.152,25.623,415.19,44.833,397.001,75.491C378.443,106.771,377.729,145.913,396.121,177.291C414.314,208.33,448.757,226.081,484.723,225.153" fill="rgba(255, 230, 2, 0.4)" class="triangle-float3"></path>
        <path d="M443.9753045167413 402.83773977635184L331.6884030676549 338.00886699825287 266.859530289556 450.29576844733924 379.1464317386423 515.1246412254382z" fill="rgba(255, 230, 2, 0.4)" class="triangle-float3"></path>
        <path d="M1134.0904421387318 467.58600492796495L1249.6246043067874 473.6408937985195 1255.679493177342 358.10673163046386 1140.1453310092863 352.0518427599093z" fill="rgba(255, 230, 2, 0.4)" class="triangle-float1"></path>
        <path d="M585.901,690.655C627.017,693.595,672.361,684.21,693.408,648.767C714.768,612.797,700.566,568.801,679.843,532.46C658.872,495.685,628.216,461.504,585.901,460.239C541.798,458.921,500.774,486.75,481.702,526.538C464.646,562.12,480.937,601.775,502.087,635.087C521.344,665.417,550.065,688.093,585.901,690.655" fill="rgba(255, 230, 2, 0.4)" class="triangle-float3"></path>
        <path d="M300.088,311.665C321.156,311.898,340.136,298.429,349.577,279.593C358.172,262.445,353.292,242.422,342.862,226.325C333.417,211.747,317.438,204.056,300.088,203.213C280.841,202.277,259.75,205.498,249.45,221.784C238.6,238.939,242.497,260.835,252.46,278.519C262.636,296.581,279.358,311.436,300.088,311.665" fill="rgba(255, 230, 2, 0.4)" class="triangle-float3"></path>
        <path d="M765.5025032070243 132.58690957055632L777.1665590254968-34.21685988907788 610.3627895658626-45.880915707550315 598.6987337473902 120.9228537520839z" fill="rgba(255, 230, 2, 0.4)" class="triangle-float2"></path>
        <path d="M297.72,414.306C332.21,414.958,356.646,384.335,373.166,354.052C388.833,325.332,396.372,291.308,380.385,262.766C364.083,233.663,331.037,221.014,297.72,219.356C260.57,217.507,217.017,220.971,199.456,253.76C182.359,285.682,208.155,320.402,227.059,351.288C244.717,380.138,263.901,413.666,297.72,414.306" fill="rgba(255, 230, 2, 0.4)" class="triangle-float1"></path>
        <path d="M35.70011880285438 616.3865297804155L143.9101822189004 568.208305508536 95.73195794702093 459.99824209248993-12.478105469025103 508.17646636436945z" fill="rgba(255, 230, 2, 0.4)" class="triangle-float2"></path>
        <path d="M1245.1719665305911 57.91840566318713L1125.9078346790184 64.16877396164789 1132.1582029774793 183.43290581322057 1251.4223348290518 177.18253751475982z" fill="rgba(255, 230, 2, 0.4)" class="triangle-float2"></path>
        <path d="M938.36,711.801C981.436,712.79,1018.917,683.767,1039.306,645.81C1058.617,609.86,1054.691,567.473,1035.123,531.663C1014.604,494.113,981.118,462.744,938.36,461.076C892.953,459.305,848.451,483.204,827.578,523.569C808.036,561.36,823.559,604.685,845.138,641.351C866.312,677.329,896.625,710.843,938.36,711.801" fill="rgba(255, 230, 2, 0.4)" class="triangle-float1"></path>
        <path d="M695.8274894176797 45.51508384027176L676.6253503576268-53.27135777634372 577.8389087410112-34.069218716290806 597.0410478010642 64.71722290032467z" fill="rgba(255, 230, 2, 0.4)" class="triangle-float1"></path>
        <path d="M661.8489009056078 435.3449331347251L777.9294168923615 402.059380799022 744.6438645566584 285.97886481226834 628.5633485699047 319.26441714797147z" fill="rgba(255, 230, 2, 0.4)" class="triangle-float3"></path>
        <path d="M1216.6249068704572 493.3259020855226L1268.545129734839 406.9161404532657 1182.135368102582 354.9959175888839 1130.2151452382002 441.4056792211408z" fill="rgba(255, 230, 2, 0.4)" class="triangle-float2"></path>
        <path d="M780.971,460.091C826.004,459.248,874.089,453.4,899.044,415.904C926.424,374.763,926.562,320.736,902.412,277.62C877.717,233.532,831.494,204.121,780.971,205.107C731.96,206.063,692.224,239.893,667.472,282.205C642.428,325.017,628.306,378.66,654.985,420.473C680.365,460.25,733.795,460.974,780.971,460.091" fill="rgba(255, 230, 2, 0.4)" class="triangle-float3"></path>
        <path d="M355.15,123.398C372.45,123.985,388.933,115.379,397.885,100.564C407.15,85.231,408.286,65.899,399.236,50.438C390.271,35.124,372.876,26.75,355.15,27.561C338.705,28.313,325.364,39.693,317.534,54.174C310.116,67.893,309.712,84.122,317.158,97.826C324.97,112.203,338.797,122.843,355.15,123.398" fill="rgba(255, 230, 2, 0.4)" class="triangle-float3"></path>
    </g>
    <defs>
        <mask id="SvgjsMask1020">
            <rect width="1440" height="560" fill="#ffffff"></rect>
        </mask>
        <style>
            @keyframes float1 {
                    0%{transform: translate(0, 0)}
                    50%{transform: translate(-10px, 0)}
                    100%{transform: translate(0, 0)}
                }

                .triangle-float1 {
                    animation: float1 5s infinite;
                }

                @keyframes float2 {
                    0%{transform: translate(0, 0)}
                    50%{transform: translate(-5px, -5px)}
                    100%{transform: translate(0, 0)}
                }

                .triangle-float2 {
                    animation: float2 4s infinite;
                }

                @keyframes float3 {
                    0%{transform: translate(0, 0)}
                    50%{transform: translate(0, -10px)}
                    100%{transform: translate(0, 0)}
                }

                .triangle-float3 {
                    animation: float3 6s infinite;
                }
        </style>
    </defs>
</svg>